<svg width="256" height="256" viewBox="0 0 256 256" fill="none" xmlns="http://www.w3.org/2000/svg">
<path fill-rule="evenodd" clip-rule="evenodd" d="M19.3671 42.7719C12.9031 48.0079 13.7121 56.7309 21.0111 60.5059C25.3751 62.7619 230.625 62.7619 234.989 60.5059C242.288 56.7309 243.097 48.0079 236.633 42.7719C234.642 41.1589 227.417 41.0439 128 41.0439C28.5831 41.0439 21.3581 41.1589 19.3671 42.7719ZM21.0141 118.744C16.6341 120.95 14.7921 124.408 15.3761 129.328C15.9381 134.064 18.2181 136.688 22.9001 137.989C28.4241 139.523 229.459 139.242 233.999 137.694C241.568 135.111 243.152 124.403 236.677 119.596C233.858 117.503 233.688 117.5 129.177 117.244C31.0421 117.004 24.2821 117.098 21.0141 118.744ZM20.3141 195.95C13.5381 200.082 13.0961 208.148 19.3671 213.228C21.3581 214.841 28.5831 214.956 128 214.956C227.417 214.956 234.642 214.841 236.633 213.228C241.077 209.628 242.334 203.35 239.439 199.217C235.621 193.765 240.641 194 127.8 194.004C26.2881 194.007 23.4151 194.059 20.3141 195.95Z" fill="black" fill-opacity="0.282"/>
<path fill-rule="evenodd" clip-rule="evenodd" d="M19.1861 43.497C15.5791 46.532 14.5491 50.103 16.0061 54.519C18.2941 61.452 10.4601 61 128.276 61H234.623L236.873 58.904C241.919 54.202 241.91 47.785 236.85 43.527L233.847 41H128H22.1531L19.1861 43.497ZM18.7891 120.898C16.1051 123.296 15.5451 124.52 15.5451 128C15.5451 131.48 16.1051 132.704 18.7891 135.102L22.0321 138H128H233.968L237.211 135.102C241.851 130.957 241.851 125.043 237.211 120.898L233.968 118H128H22.0321L18.7891 120.898ZM19.3011 196.772C14.3861 200.635 14.0721 207.84 18.6321 212.124L21.1611 214.5H128H234.839L237.335 212.155C240.512 209.17 241.381 205.684 239.994 201.481C237.705 194.547 245.539 194.998 127.785 195.022C28.6171 195.043 21.3531 195.16 19.3011 196.772Z" fill="black" fill-opacity="0.989"/>
</svg>
